<svg width="80" height="117" viewBox="0 0 80 117" fill="none" xmlns="http://www.w3.org/2000/svg" data-name="Layer 1" xmlns:xlink="http://www.w3.org/1999/xlink">
<path d="M38.592 93.864C34.176 93.864 30.4 92.904 27.264 90.984C24.128 89 21.728 86.056 20.064 82.152C18.464 78.184 17.664 73.128 17.664 66.984C17.664 60.776 18.432 55.72 19.968 51.816C21.504 47.848 23.808 44.904 26.88 42.984C30.016 41.064 33.92 40.104 38.592 40.104C43.328 40.104 47.616 41.224 51.456 43.464C55.36 45.64 58.432 48.744 60.672 52.776C62.976 56.744 64.128 61.48 64.128 66.984C64.128 72.488 62.976 77.256 60.672 81.288C58.432 85.32 55.36 88.424 51.456 90.6C47.616 92.776 43.328 93.864 38.592 93.864ZM5.85602 111.624V40.968H23.232V49.8L23.136 66.984L24.096 84.264V111.624H5.85602ZM34.752 79.368C36.8 79.368 38.624 78.888 40.224 77.928C41.888 76.968 43.2 75.56 44.16 73.704C45.184 71.848 45.696 69.608 45.696 66.984C45.696 64.36 45.184 62.12 44.16 60.264C43.2 58.408 41.888 57 40.224 56.04C38.624 55.08 36.8 54.6 34.752 54.6C32.704 54.6 30.848 55.08 29.184 56.04C27.584 57 26.272 58.408 25.248 60.264C24.288 62.12 23.808 64.36 23.808 66.984C23.808 69.608 24.288 71.848 25.248 73.704C26.272 75.56 27.584 76.968 29.184 77.928C30.848 78.888 32.704 79.368 34.752 79.368Z" fill="#2D52B5"/>
<path d="M55.592 54.832V24.368H65.448V54.832H55.592ZM44.712 44.272V34.928H76.264V44.272H44.712Z" fill="#48B17F"/>
</svg>
